<?xml version="1.0" encoding="UTF-8"?>
<svg xmlns="http://www.w3.org/2000/svg" xmlns:xlink="http://www.w3.org/1999/xlink" viewBox="0 0 1500 500">
  <defs>
    <style>
      .cls-1 {
        font-size: 60px;
      }

      .cls-1, .cls-2, .cls-3, .cls-4 {
        fill: #213547;
      }

      .cls-1, .cls-3 {
        font-family: Montserrat-Bold, Montserrat;
        font-weight: 700;
      }

      .cls-5, .cls-6 {
        fill: none;
      }

      .cls-7 {
        opacity: .5;
      }

      .cls-7, .cls-8 {
        mix-blend-mode: screen;
      }

      .cls-7, .cls-9, .cls-10 {
        fill: #a67c75;
      }

      .cls-8 {
        opacity: .7;
      }

      .cls-8, .cls-11 {
        fill: #d6b3ab;
      }

      .cls-12 {
        letter-spacing: -.01em;
      }

      .cls-13 {
        clip-path: url(#clippath);
      }

      .cls-14 {
        letter-spacing: 0em;
      }

      .cls-15 {
        letter-spacing: 0em;
      }

      .cls-16 {
        letter-spacing: 0em;
      }

      .cls-17 {
        fill: #f7f7f7;
      }

      .cls-18 {
        fill: #fff;
      }

      .cls-19 {
        fill: #efedea;
      }

      .cls-20 {
        fill: #9d9d9e;
      }

      .cls-21 {
        fill: #a9a9aa;
      }

      .cls-22 {
        fill: #bcbec0;
      }

      .cls-23 {
        fill: #bbded6;
      }

      .cls-24 {
        fill: #ccdce4;
      }

      .cls-25 {
        fill: #cccdce;
      }

      .cls-26, .cls-27 {
        fill: #365266;
      }

      .cls-28 {
        letter-spacing: 0em;
      }

      .cls-29 {
        letter-spacing: 0em;
      }

      .cls-30 {
        letter-spacing: -.01em;
      }

      .cls-31 {
        letter-spacing: 0em;
      }

      .cls-32 {
        letter-spacing: 0em;
      }

      .cls-33 {
        letter-spacing: 0em;
      }

      .cls-34 {
        letter-spacing: 0em;
      }

      .cls-35 {
        letter-spacing: 0em;
      }

      .cls-10, .cls-11 {
        mix-blend-mode: multiply;
        opacity: .3;
      }

      .cls-36 {
        letter-spacing: -.02em;
      }

      .cls-37 {
        letter-spacing: -.02em;
      }

      .cls-38 {
        letter-spacing: -.05em;
      }

      .cls-39 {
        letter-spacing: 0em;
      }

      .cls-40 {
        letter-spacing: -.02em;
      }

      .cls-41 {
        letter-spacing: -.01em;
      }

      .cls-42 {
        letter-spacing: 0em;
      }

      .cls-43 {
        letter-spacing: 0em;
      }

      .cls-44 {
        letter-spacing: .02em;
      }

      .cls-45 {
        letter-spacing: 0em;
      }

      .cls-6 {
        stroke: #fff;
        stroke-miterlimit: 10;
      }

      .cls-46 {
        letter-spacing: -.01em;
      }

      .cls-47 {
        letter-spacing: -.02em;
      }

      .cls-48 {
        isolation: isolate;
      }

      .cls-3 {
        font-size: 27.86px;
      }

      .cls-49 {
        letter-spacing: 0em;
      }

      .cls-4 {
        font-family: Montserrat-Regular, Montserrat;
        font-size: 15.86px;
      }

      .cls-50 {
        letter-spacing: -.01em;
      }

      .cls-51 {
        letter-spacing: -.01em;
      }

      .cls-52 {
        letter-spacing: 0em;
      }

      .cls-27 {
        opacity: .54;
      }
    </style>
    <clipPath id="clippath">
      <rect class="cls-5" width="1500" height="500"/>
    </clipPath>
  </defs>
  <g class="cls-48">
    <g id="BACKGROUND">
      <rect class="cls-24" width="1500" height="500"/>
    </g>
    <g id="OBJECTS">
      <path class="cls-27" d="m1500,0h-508.52c11.87,35.7,31.44,69.14,59.86,93.62,32.06,27.61,76.16,42.63,117.69,34.55,34.87-6.79,64.63-28.44,94.79-47.2,30.16-18.76,64.44-35.63,99.67-31.11,23.28,2.99,44.25,15.03,64.78,26.38,20.54,11.36,42.22,22.52,65.67,23.48,2.01.08,4.03.06,6.06-.05V0Z"/>
      <path class="cls-23" d="m1500,500V197.54c-2.01-.19-4.02-.3-6.05-.34-33.18-.62-67.02,22.87-72.43,55.6-7.13,43.16,32.87,85.95,19.68,127.66-9.51,30.05-43.07,45.48-74.22,50.33-31.15,4.85-63.82,2.91-93.12,14.55-24.49,9.73-46.38,30.21-57.42,54.66h283.56Z"/>
      <path class="cls-27" d="m544.81,450.78c-32.25-10.55-67.48-3.12-99.87,6.99-32.39,10.11-64.74,22.97-98.67,23.19-45.61.3-88.32-22.39-124.99-49.52-36.67-27.13-69.69-59.34-108.76-82.87-33.76-20.33-74.01-33.8-112.51-28.64v180.08h594c-6.41-22.3-26.37-41.75-49.19-49.22Z"/>
      <path class="cls-23" d="m42.85,96.19c29.31-8.07,55.5-25.02,84.6-33.79,68.45-20.64,141.36,6.23,207.14,34.24,65.78,28.01,136.26,58.26,206.36,44.19,41.45-8.32,79.5-32.56,104.56-66.62C661.55,52.4,672.14,26.7,676.55,0H0v98.97c14.07,2.23,29.2.98,42.85-2.78Z"/>
      <path class="cls-19" d="m588,0c-5.01,12.85-10.76,25.36-17.86,37.18-15.35,25.53-37.86,47.94-66.17,57.2-44.32,14.5-92.03-5.31-133.31-27-41.28-21.69-84.77-46.45-131.2-42.06-34.63,3.27-65.6,22.56-93.24,43.67-27.65,21.11-53.89,44.83-85.42,59.51-18.8,8.76-40.26,13.8-60.79,12.56v46.19c31.58-2.76,62.41-14.5,87.26-34.22,24.5-19.45,42.77-45.46,64.1-68.34,21.33-22.88,47.79-43.58,78.87-47.02,29.97-3.31,59.37,9.99,84.52,26.63,25.14,16.64,47.96,36.99,74.84,50.66,49.03,24.94,110.04,24.79,158.95-.4C593.01,91.65,626.44,48.55,638.27,0h-50.27Z"/>
      <path class="cls-19" d="m1096.93,472.1c-32.54-11.81-68.25-9.17-102.84-7.76-34.59,1.41-71.01,1.01-101.25-15.84-34.13-19.01-55.14-56.16-89.1-75.47-38.52-21.89-91.1-15.29-123.01,15.45-29.06,27.99-38.74,73.86-24.8,111.52h481.45c-10.62-12.47-25.09-22.33-40.44-27.9Z"/>
      <g class="cls-13">
        <path class="cls-6" d="m403.05-28.53c7.52,36-1.47,75.11-23.95,104.22-22.48,29.11-58.05,47.69-94.78,49.51-46.14,2.29-91.23-20.37-137.18-15.62-41.9,4.33-78.77,31.43-104.36,64.89C17.19,207.93,1.22,247.58-14.46,286.68"/>
        <g>
          <path class="cls-2" d="m682.73,244.46c.56,3.05,1.74,6.08,3.94,8.26,2.2,2.18,5.57,3.34,8.51,2.36,2.46-.82,4.28-2.99,5.26-5.39.98-2.4,1.24-5.02,1.42-7.6.24-3.4.35-6.89-.63-10.15-1.9-6.27-9.33-10.57-15-5.61-4.35,3.8-4.44,12.96-3.49,18.13Z"/>
          <path class="cls-2" d="m654.3,206.98c.34,3.41,1.71,6.85,4.39,8.99s6.8,2.61,9.52.53c3.07-2.35,3.41-6.81,3.17-10.68-.2-3.39-.67-6.87-2.36-9.82-1.69-2.95-4.84-5.27-8.24-5.08-7.14.4-6.99,11.02-6.48,16.07Z"/>
          <path class="cls-2" d="m713,214.52c4.76,1.42,9.81-2.65,11.08-7.45,1.93-7.26-4.29-28.71-14.79-22.12-8.68,5.45-5.82,26.72,3.71,29.57Z"/>
          <path class="cls-2" d="m677.17,168.03c.31,4.08,1.65,8.68,5.38,10.37,3.97,1.8,8.86-.89,10.85-4.77,1.99-3.88,1.77-8.5,1.13-12.81-.84-5.62-4.68-13.72-11.87-10.78-6.13,2.51-5.89,12.7-5.49,17.99Z"/>
          <path class="cls-2" d="m656.43,151.11c.99,1.59,2.35,3.22,4.21,3.4,2.33.22,4.18-1.9,5.3-3.96,3.61-6.62,6.35-30.1-7.23-26.47-11.46,3.06-6.56,20.18-2.28,27.03Z"/>
          <path class="cls-2" d="m716.25,151c2.5-1.55,3.94-4.44,4.32-7.36,1.15-8.88-8.12-29.33-17.38-16.31-6.09,8.56-.17,31.91,13.07,23.66Z"/>
          <path class="cls-2" d="m678.81,123.31c1.03,3.22,2.95,6.76,6.29,7.23,2.88.41,5.61-1.84,6.74-4.52,1.13-2.68,1.04-5.7.94-8.61-.11-2.92-.22-5.88-1.13-8.66-1.84-5.67-9.67-10.61-14.03-4.48-3.21,4.51-.3,14.37,1.19,19.03Z"/>
          <path class="cls-2" d="m650.93,94.89c.89,2.13,2.05,4.22,3.83,5.69,1.78,1.47,4.28,2.22,6.47,1.47,2.77-.96,4.27-3.99,4.87-6.87,1.25-6.01-.3-12.54-4.12-17.35-3.72-4.67-10.1-5.92-12.95-.11-2.23,4.54.12,12.87,1.9,17.17Z"/>
          <path class="cls-2" d="m697.92,89.86c1.53,2.35,3.49,4.79,6.25,5.27,3.88.67,7.39-3.14,7.82-7.05.42-3.91-1.37-7.7-3.33-11.11-2.83-4.92-10.03-12.9-15.64-6.54-4.86,5.51,1.84,14.75,4.9,19.44Z"/>
          <path class="cls-2" d="m666.43,58.71c2.5,2.31,6.23,3.95,9.29,2.45,3.73-1.82,4.19-6.87,4-11.01-.14-3.13-.37-6.32-1.58-9.21-2.79-6.65-12.37-8.95-16.49-2.21-3.67,5.99.16,15.7,4.79,19.98Z"/>
          <path class="cls-2" d="m639.96,38.83c2.52-1.59,3.71-4.76,3.61-7.74-.32-9.64-11.44-23.49-18.69-10.77-4.82,8.46,5.16,24.75,15.08,18.51Z"/>
          <path class="cls-2" d="m684.52,22.41c1.83,2.65,4.42,5.3,7.64,5.23,3.17-.07,5.74-2.95,6.43-6.04.69-3.1-.1-6.32-1.13-9.32-2.03-5.95-8.27-16.42-15.81-11.12-7.17,5.04-.7,16.11,2.87,21.26Z"/>
          <path class="cls-2" d="m648.82,9.21c1.57,2.22,3.58,4.22,6.07,5.32,2.49,1.1,5.51,1.2,7.86-.17,3.26-1.9,4.5-6.1,4.31-9.87-.37-7.5-8.3-18.95-17.04-17.87-9.91,1.23-4.91,17.33-1.2,22.59Z"/>
        </g>
        <g>
          <path class="cls-18" d="m1256.31,387.35c-2.13.99-3.85,2.73-5.17,4.67-5.66,8.31,1.94,22.26,11.41,14.42,6.88-5.7,5.77-24.65-6.24-19.09Z"/>
          <path class="cls-18" d="m1274.02,435.95c-.41,1.17-1.03,2.25-1.96,3.11-1.09,1.01-2.48,1.71-3.96,1.94-.66.1-1.34.11-2,.01-3.38-.51-6.13-3.75-6.08-7.16.04-2.48,1.35-4.76,2.81-6.76,1.5-2.05,3.53-4.12,6.08-4.14,2.64-.02,4.86,2.31,5.5,4.88.58,2.3.46,4.74-.09,7.04-.09.37-.19.73-.32,1.09Z"/>
          <path class="cls-18" d="m1238.01,420.74c.45-3.84-1.56-8.26-5.31-9.17-1.97-.48-4.07.08-5.87,1.01-3.03,1.57-5.5,4.32-6.42,7.61-.92,3.29-.13,7.08,2.26,9.51,7.17,7.3,14.5-1.74,15.35-8.96Z"/>
          <path class="cls-18" d="m1243.43,469c-4.69,1.38-10.21-1.97-11.14-6.77-.73-3.76,1.04-7.55,3.21-10.7,1.29-1.88,2.79-3.7,4.76-4.85,1.97-1.16,4.5-1.57,6.56-.58,7.94,3.8,3.88,20.76-3.39,22.91Z"/>
          <path class="cls-18" d="m1267.93,488.12c-3.39.97-7.03-1.45-8.52-4.64-1.49-3.19-1.31-6.9-.8-10.38.28-1.95.71-3.99,2.02-5.46,8.05-9.01,20.3,16.78,7.3,20.49Z"/>
          <path class="cls-18" d="m1211.15,484.85c-2.75,1.38-6.27.8-8.66-1.15s-3.65-5.08-3.63-8.16,1.24-6.07,3.09-8.53c1.89-2.51,4.98-4.63,8.01-3.82,2.39.64,3.99,2.93,4.83,5.26,1.65,4.6,1.45,13.84-3.66,16.4Z"/>
          <path class="cls-18" d="m1238.73,511.39c-2.74,1.33-6.19.77-8.64-1.05-2.45-1.82-3.94-4.73-4.44-7.74-.54-3.27.13-6.87,2.4-9.28,2.72-2.88,7.58-3.4,10.85-1.17,5.12,3.48,6.04,16.22-.18,19.24Z"/>
        </g>
        <g>
          <path class="cls-9" d="m0,435.7l134.29-67.89s47.75-75.35,97.74-82.81c49.99-7.46,84.31,0,102.96,13.43,18.65,13.43,79.08,3.73,79.08,3.73,0,0,43.65-9.33,47,26.86l115.64-23.13s15.67-4.1,21.64,4.1c0,0,42.15-12.68,50.36-1.12,8.21,11.56,2.24,22.38,2.24,22.38,0,0,2.98,13.06-13.43,17.53-16.41,4.48-77.96,8.58-152.95,47.75-74.98,39.17-69.76,51.11-107.81,52.23-38.05,1.12-122.73,11.19-159.29,28.72L0,622.78v-187.08Z"/>
          <path class="cls-10" d="m461.07,329.01s-54.62,10.63-61.18.56c-6.56-10.07-12.54-12.97-12.54-12.97,1.29,8.52,1.1,14.71.73,18.37-5.56-.22-10.64.24-15.17,1.06-8.12-17.24-35.5-22.08-35.5-22.08,0,0,23.49,11.66,33.93,22.38-14.36,2.96-22.79,9.52-22.79,9.52,9.13-3.09,17.84-4.93,25.78-5.96,0,0,0,0,0,0,0,0,0,0,0,0,14.61-1.89,26.6-1.02,33.79-.04,4.38.65,7.3,1.31,7.3,1.31,6.13-1.63,45.65-12.15,45.65-12.15Z"/>
          <path class="cls-10" d="m409.6,406.6c-12.61,5.64-28.03,16.27-41.58,26.63-6.18-3.84-15.33-8.19-30.6-12.95-55.4-17.28-99.04,24-99.04,24-63.79,0-44.77-96.24-44.77-96.24-18.47,12.87-27.69,30.78-27.69,30.78-4.76-31.89,13.82-64.86,13.82-64.86-53.6,51.52-12.77,124.4-12.77,124.4-14.9-24.4-26.51-57.86-26.51-57.86-6.16,35.25,1.68,67.84,1.68,67.84L0,530.45v92.33l217.48-145.3c28.6-13.72,86.67-22.87,128.81-26.74h0s.08,0,.11-.01c1.47-.14,2.93-.26,4.36-.39.66-.06,1.3-.11,1.95-.16.86-.07,1.73-.14,2.58-.21.68-.05,1.34-.1,2.01-.15.8-.06,1.61-.12,2.39-.18.64-.05,1.28-.09,1.91-.13.79-.05,1.56-.1,2.33-.15.59-.04,1.18-.07,1.76-.11.8-.05,1.58-.09,2.35-.13.52-.03,1.05-.06,1.55-.08.85-.04,1.67-.08,2.48-.11.41-.02.82-.04,1.22-.05,1.2-.05,2.36-.09,3.48-.12,1.07-.03,2.1-.07,3.1-.12.28-.01.55-.03.82-.05.73-.04,1.44-.08,2.14-.13.28-.02.56-.04.84-.07.68-.05,1.34-.11,1.99-.18.25-.02.49-.05.74-.07.68-.07,1.35-.15,2-.23.13-.02.27-.03.39-.05,0,0,0,0,0,0,20.5-2.74,27.22-11.67,61.7-32.31,1.95-19.55,24.1-31.22,24.1-31.22,29.14-11.54,113.33-30.69,113.33-30.69-114.01,18.35-178.31,52.97-178.31,52.97Z"/>
          <path class="cls-10" d="m289.19,339.84c31.99-.07,57.36,6.7,57.36,6.7-28.8-15.52-54.43-16.7-73.88-13.33-38.78-12.03-63.4,5.56-63.4,5.56,17.46-5.23,37.61-4.91,53.32-3.3-17.54,4.84-27.95,12.57-27.95,12.57,18.13-6.13,37.25-8.15,54.46-8.19.11.03.19.05.19.05-.03-.02-.07-.03-.1-.05Z"/>
          <g>
            <rect class="cls-26" x="229.46" y="93.29" width="333.68" height="247.07"/>
            <rect class="cls-8" x="375.83" y="93.29" width="41.27" height="41.27"/>
            <rect class="cls-8" x="375.83" y="299.09" width="41.27" height="41.27"/>
            <path class="cls-11" d="m229.46,185.14s35.83,125.01,333.68,155.22H229.46v-155.22Z"/>
            <g>
              <circle class="cls-22" cx="396.29" cy="214.38" r="50.78" transform="translate(-35.52 343.01) rotate(-45)"/>
              <circle class="cls-25" cx="396.29" cy="214.38" r="43.1" transform="translate(-35.52 343.01) rotate(-45)"/>
              <path class="cls-20" d="m418.78,177.56c4.3,6.69,6.81,14.65,6.82,23.2.04,23.8-19.22,43.13-43.02,43.17-8.27.01-15.99-2.3-22.56-6.33,7.68,11.94,21.1,19.85,36.35,19.82,23.8-.04,43.06-19.37,43.02-43.17-.03-15.54-8.27-29.13-20.61-36.7Z"/>
              <path class="cls-17" d="m360.75,218.39c-.04-21.01,16.97-38.07,37.98-38.11,12.28-.02,23.21,5.78,30.18,14.8-6.59-11.39-18.92-19.05-33.02-19.03-21.01.04-38.01,17.1-37.98,38.11.02,8.73,2.97,16.77,7.93,23.18-3.23-5.58-5.08-12.05-5.09-18.95Z"/>
              <path class="cls-21" d="m399.8,186.56v5.49c2.21.35,4.02,1.08,5.42,2.18,1.4,1.1,2.74,2.79,4.01,5.06l-5.46,3.06c-1.65-2.98-3.8-4.48-6.45-4.47-1.64,0-3.01.49-4.09,1.46-1.08.97-1.62,2.19-1.62,3.64,0,1.33.44,2.43,1.32,3.3.86.86,2.6,1.87,5.22,3.04,2.26,1.02,4.13,1.99,5.61,2.89,1.48.9,2.59,1.77,3.34,2.61,2.11,2.27,3.17,5.03,3.18,8.26,0,3.18-.94,5.98-2.84,8.41-1.88,2.41-4.4,4.04-7.55,4.89v5.8s-4.89,0-4.89,0v-5.63c-3.67-.59-6.47-1.85-8.39-3.77-1.93-1.92-3.35-4.89-4.27-8.9l6.16-1.3c.85,2.84,1.88,4.86,3.09,6.07,1.27,1.16,2.96,1.73,5.07,1.73,2.05,0,3.77-.67,5.15-2,1.36-1.31,2.04-3,2.04-5.07,0-1.85-.58-3.33-1.72-4.45-.58-.54-1.44-1.15-2.57-1.83-1.13-.68-2.58-1.42-4.33-2.22-3.63-1.62-6.01-3.11-7.15-4.47-1.82-2.03-2.72-4.47-2.73-7.31,0-1.34.21-2.6.64-3.75.43-1.16,1.05-2.21,1.86-3.15.81-.94,1.81-1.76,3.01-2.46,1.19-.69,2.55-1.24,4.06-1.63v-5.49s4.89,0,4.89,0Z"/>
            </g>
          </g>
          <path class="cls-9" d="m403.63,344.3l57.45-15.29s88.78-12.31,103.33-12.31,35.07,16.41,23.5,36.93c0,0-105.94,15.29-178.31,52.97"/>
          <path class="cls-7" d="m458.98,329.57l56.49-7.75s39.22-4.84,48.93-5.12c9.7-.27,36.14,12.01,23.5,36.93,0,0,10.63-29.12-24.38-34.51l-104.55,10.45Z"/>
          <path class="cls-10" d="m403.63,374.15s2.74-23.39,24.31-36.32c0,0-17.6,4.05-24.31,6.47,0,0-4.1,14.74,0,29.84Z"/>
          <path class="cls-10" d="m458.98,329.57s6.94,11.38,6.94,18.47c0,0,4.88-13.41-6.94-18.47Z"/>
          <path class="cls-10" d="m515.48,321.81s6.78,10.3,7.15,17.33c0,0,4.62-13.87-7.15-17.33Z"/>
          <path class="cls-7" d="m573.81,318.69s77.32-23.81,77.14,12.56c0,0-4.9-16.17-22.79-17.51-17.89-1.35-54.34,4.95-54.34,4.95Z"/>
        </g>
        <path class="cls-6" d="m459.08,510.22c-7.83-28.69,8.04-60.29,32.75-76.85,24.71-16.55,56.25-20.04,85.77-16.44,29.52,3.61,57.79,13.69,86.21,22.43,28.43,8.74,57.85,16.25,87.54,14.46,56.66-3.42,108.81-40.29,165.42-36.17,52.74,3.83,99.78,47.91,107.03,100.29"/>
        <path class="cls-6" d="m935.65-21.86c23.22,38.3,68.31,59.02,112.82,63.96,44.52,4.93,89.29-3.68,133.3-11.96,44.02-8.28,88.99-16.3,133.36-10.18,44.37,6.11,88.8,28.77,109.96,68.25,11.04,20.6,15.04,44.1,19.5,67.04,4.46,22.94,9.79,46.39,22.94,65.71,13.15,19.32,35.95,33.79,59.09,30.56"/>
      </g>
    </g>
    <g id="TEXTS">
      <text class="cls-1" transform="translate(756.29 139.23)"><tspan class="cls-32" x="0" y="0">T</tspan><tspan class="cls-14" x="36.72" y="0">OGETHER </tspan><tspan class="cls-46" x="362.7" y="0">W</tspan><tspan class="cls-15" x="431.82" y="0">E RIS</tspan><tspan x="592.31" y="0">E</tspan><tspan class="cls-15" x="632.57" y="0">: </tspan></text>
      <text class="cls-1" transform="translate(756.29 207.4)"><tspan class="cls-15" x="0" y="0">CHARI</tspan><tspan class="cls-28" x="203.4" y="0">T</tspan><tspan class="cls-14" x="239.94" y="0">Y R</tspan><tspan class="cls-32" x="342.3" y="0">E</tspan><tspan class="cls-36" x="382.2" y="0">V</tspan><tspan class="cls-15" x="425.82" y="0">O</tspan><tspan class="cls-52" x="476.69" y="0">L</tspan><tspan class="cls-43" x="512.63" y="0">U</tspan><tspan class="cls-14" x="559.43" y="0">TION</tspan></text>
      <text class="cls-3" transform="translate(1014.84 353.03)"><tspan x="0" y="0">zk</tspan><tspan class="cls-41" x="33.51" y="0">F</tspan><tspan x="50.92" y="0">u</tspan><tspan class="cls-34" x="70.06" y="0">n</tspan><tspan x="89.47" y="0">dMe</tspan></text>
      <text class="cls-4" transform="translate(866.27 256.58)"><tspan x="0" y="0">– t</tspan><tspan class="cls-31" x="18.53" y="0">h</tspan><tspan x="29.3" y="0">e digital plat</tspan><tspan class="cls-29" x="128.25" y="0">f</tspan><tspan x="133.48" y="0">o</tspan><tspan class="cls-45" x="143.43" y="0">r</tspan><tspan x="149.66" y="0">m w</tspan><tspan class="cls-31" x="184.59" y="0">h</tspan><tspan x="195.36" y="0">e</tspan><tspan class="cls-50" x="204.94" y="0">r</tspan><tspan x="211.1" y="0">e ge</tspan><tspan class="cls-39" x="245.3" y="0">n</tspan><tspan x="256.07" y="0">e</tspan><tspan class="cls-50" x="265.65" y="0">r</tspan><tspan x="271.8" y="0">osi</tspan><tspan class="cls-12" x="293.77" y="0">t</tspan><tspan x="300.05" y="0">y fi</tspan><tspan class="cls-39" x="323.72" y="0">n</tspan><tspan x="334.49" y="0">ds a </tspan><tspan class="cls-31" x="370.67" y="0">h</tspan><tspan x="381.44" y="0">o</tspan><tspan class="cls-39" x="391.39" y="0">m</tspan><tspan x="408.25" y="0">e a</tspan><tspan class="cls-31" x="431.34" y="0">n</tspan><tspan x="442.11" y="0">d </tspan><tspan class="cls-29" x="-30.04" y="19.04">c</tspan><tspan x="-21.25" y="19.04">om</tspan><tspan class="cls-33" x="5.53" y="19.04">p</tspan><tspan x="16.23" y="19.04">assion </tspan><tspan class="cls-45" x="70.21" y="19.04">k</tspan><tspan class="cls-31" x="79.62" y="19.04">n</tspan><tspan class="cls-47" x="90.39" y="19.04">o</tspan><tspan class="cls-16" x="100.1" y="19.04">w</tspan><tspan x="113.95" y="19.04">s </tspan><tspan class="cls-31" x="125.86" y="19.04">n</tspan><tspan x="136.63" y="19.04">o limits. </tspan><tspan class="cls-38" x="202.08" y="19.04">T</tspan><tspan x="210.31" y="19.04">oget</tspan><tspan class="cls-39" x="247.16" y="19.04">h</tspan><tspan x="257.93" y="19.04">e</tspan><tspan class="cls-12" x="267.51" y="19.04">r</tspan><tspan x="273.71" y="19.04">, let&apos;s c</tspan><tspan class="cls-50" x="325.56" y="19.04">r</tspan><tspan class="cls-30" x="331.72" y="19.04">e</tspan><tspan x="341.06" y="19.04">a</tspan><tspan class="cls-37" x="350.42" y="19.04">t</tspan><tspan x="356.56" y="19.04">e a </tspan><tspan class="cls-30" x="383.81" y="19.04">w</tspan><tspan x="397.52" y="19.04">o</tspan><tspan class="cls-42" x="407.46" y="19.04">r</tspan><tspan x="413.7" y="19.04">ld w</tspan><tspan class="cls-31" x="446.82" y="19.04">h</tspan><tspan x="457.59" y="19.04">e</tspan><tspan class="cls-50" x="467.17" y="19.04">r</tspan><tspan x="473.32" y="19.04">e </tspan><tspan class="cls-31" x="-25.89" y="38.07">h</tspan><tspan x="-15.12" y="38.07">elp is </tspan><tspan class="cls-51" x="29.82" y="38.07">r</tspan><tspan class="cls-47" x="35.98" y="38.07">e</tspan><tspan class="cls-31" x="45.32" y="38.07">a</tspan><tspan x="54.71" y="38.07">dily </tspan><tspan class="cls-49" x="86.75" y="38.07">a</tspan><tspan class="cls-40" x="95.95" y="38.07">v</tspan><tspan x="104.29" y="38.07">ailable a</tspan><tspan class="cls-39" x="169.66" y="38.07">n</tspan><tspan x="180.43" y="38.07">d w</tspan><tspan class="cls-31" x="209.29" y="38.07">h</tspan><tspan x="220.06" y="38.07">e</tspan><tspan class="cls-50" x="229.64" y="38.07">r</tspan><tspan x="235.79" y="38.07">e </tspan><tspan class="cls-49" x="249.53" y="38.07">e</tspan><tspan class="cls-47" x="258.95" y="38.07">v</tspan><tspan x="267.31" y="38.07">e</tspan><tspan class="cls-44" x="276.89" y="38.07">r</tspan><tspan x="283.49" y="38.07">y </tspan><tspan class="cls-31" x="296.25" y="38.07">a</tspan><tspan class="cls-35" x="305.63" y="38.07">c</tspan><tspan x="314.66" y="38.07">t of </tspan><tspan class="cls-42" x="344.74" y="38.07">k</tspan><tspan x="354.14" y="38.07">i</tspan><tspan class="cls-31" x="358.41" y="38.07">n</tspan><tspan x="369.18" y="38.07">d</tspan><tspan class="cls-39" x="379.93" y="38.07">n</tspan><tspan x="390.7" y="38.07">ess has t</tspan><tspan class="cls-31" x="458.41" y="38.07">h</tspan><tspan x="469.17" y="38.07">e </tspan><tspan x="99.4" y="57.1">p</tspan><tspan class="cls-47" x="110.16" y="57.1">ow</tspan><tspan x="133.57" y="57.1">er </tspan><tspan class="cls-37" x="153.67" y="57.1">t</tspan><tspan x="159.8" y="57.1">o t</tspan><tspan class="cls-29" x="180.35" y="57.1">r</tspan><tspan x="186.56" y="57.1">ans</tspan><tspan class="cls-29" x="214.42" y="57.1">f</tspan><tspan x="219.65" y="57.1">o</tspan><tspan class="cls-42" x="229.6" y="57.1">r</tspan><tspan x="235.83" y="57.1">m li</tspan><tspan class="cls-30" x="265.35" y="57.1">v</tspan><tspan x="273.71" y="57.1">es </tspan><tspan class="cls-29" x="295.21" y="57.1">f</tspan><tspan x="300.44" y="57.1">o</tspan><tspan class="cls-50" x="310.38" y="57.1">r</tspan><tspan class="cls-49" x="316.54" y="57.1">e</tspan><tspan class="cls-47" x="325.96" y="57.1">v</tspan><tspan x="334.32" y="57.1">e</tspan><tspan class="cls-49" x="343.9" y="57.1">r</tspan><tspan x="350.1" y="57.1">.</tspan></text>
    </g>
  </g>
</svg>