<svg xmlns="http://www.w3.org/2000/svg" version="1.1" xmlns:xlink="http://www.w3.org/1999/xlink" xmlns:svgjs="http://svgjs.com/svgjs" width="512" height="512" x="0" y="0" viewBox="0 0 512 512" style="enable-background:new 0 0 512 512" xml:space="preserve" class=""><g><path d="M324.08 177.37c-27.81-27.12-61.26-16-79.63 7.49-18.36-23.45-51.84-34.61-79.64-7.48-9.07 9.57-18.29 27.4-10.74 58 14.8 56.37 82.78 102.23 90.39 103.41 8.75-1.75 75.87-47.88 90.37-103.42 7.54-30.6-1.68-48.43-10.75-58zm-3.81 54.36c-10.67 43.2-61.17 80.47-75.82 90.51-14.65-10-65.15-47.3-75.82-90.5-4.69-19-2.24-34.21 7.07-44.05a37.81 37.81 0 0 1 26.2-11.26c20.3 0 36.38 24.84 35.9 25.17 2.62 5.28 10.64 5.28 13.28 0 .11-.21 11.33-20.92 32.11-24.87 6.91-1.32 20.79 1.21 30 10.93s11.81 25.09 7.08 44.07z" fill="#213547" data-original="#000000" class="" opacity="1"></path><path d="M152.53 92c5.35 10.92 10.88 22.21 15.18 30.21 8.71 16.15 22.48 30 23.06 30.61a7.5 7.5 0 1 0 10.62-10.6c-.13-.12-12.79-12.88-20.47-27.13-4.17-7.74-9.64-18.9-14.92-29.69-5.11-10.4-9.93-20.25-13.74-27.4-2.76-5.17-2-8.29-1.17-8.72 1.08-.59 5.29.91 9.28 8.11 7.45 13.46 22.68 34.06 34.15 49a63.62 63.62 0 0 0 101.85 0c11.47-14.9 26.7-35.5 34.16-49 4-7.21 8.2-8.7 9.28-8.11.79.43 1.59 3.55-1.17 8.72C330 74.24 319 98 309.93 115.22c-7.41 14.2-20.24 26.86-20.36 27-4.83 4.57-1.31 13 5.24 12.86a7.48 7.48 0 0 0 5.25-2.14c.59-.58 14.63-14.4 23.17-30.76 9-17.18 20.07-40.95 28.64-57.07 14.57-28.94-18.55-44.58-34.47-15-7 12.65-21.76 32.59-32.91 47.09a48.59 48.59 0 0 1-78.08 0c-11.15-14.5-25.92-34.44-32.92-47.08-8.8-15.9-21.5-18.42-29.57-14-10.36 5.64-10.3 18.84-4.89 29 3.68 6.88 8.45 16.61 13.5 26.88zM43.56 286.9c16.57-2.95 46.61-6.57 63.23-9.62 18.22-3.32 39.86-15.45 40.77-16a7.5 7.5 0 0 0-7.37-13.06c-.2.11-20.38 11.41-36.09 14.27-16.55 3-46.62 6.66-63.17 9.61-5.77 1-8.49-.69-8.66-1.58-.22-1.22 2.5-4.76 10.59-6.32 15.14-2.9 39.4-11.02 57.14-17.32A63.63 63.63 0 0 0 131.45 150c-10.63-15.51-25.51-36.36-36-47.61-5.62-6-5.74-10.49-4.85-11.34.66-.62 3.87-.41 7.93 3.81 12.77 13.23 32 31.06 45.53 45 4.55 4.64 9.57 11.73 14.51 20.51a7.5 7.5 0 0 0 13.06-7.37C160.09 131.65 147 122 131 105.92c-8.2-8-15.93-15.48-21.68-21.45C98.82 73.54 86.75 74 80.27 80.18c-6.67 6.32-8.2 19.17 4.2 32.45 9.87 10.57 24.27 30.77 34.61 45.86a49.72 49.72 0 0 1 7.22 41.73c-4.38 15.09-16 27.08-31.35 32.52-17.23 6.13-40.76 14-54.95 16.76-17.84 3.5-24.15 14.76-22.47 23.79C19.6 285 32.84 288.92 43.56 286.9zM59.37 334.62c16.52-8.05 39.42-20.79 56.85-29.4 14.22-7.07 37.2-9.59 37.42-9.61 9.83-1.39 8.35-15.61-1.57-14.92-1 .11-25.87 2.81-42.53 11.1-17.41 8.58-40.31 21.33-56.72 29.34C24 336 41.63 368.09 71.93 353.47c13.1-6.11 36.76-13.57 54.3-18.74a48.38 48.38 0 0 1 63.16 45.89c.5 18.29.73 43.1-1 57.44-4.16 35.37 32.66 38.26 36.67 8.17 2.31-16.66 8.15-46.35 10.39-63.11 2.49-18.49-2.44-39.12-2.65-40a7.5 7.5 0 1 0-14.58 3.54c0 .18 4.48 18.71 2.36 34.44-2.24 16.68-8.07 46.4-10.38 63.05-.81 5.8-3.31 7.85-4.18 7.75-1.22-.16-3.75-3.85-2.74-12 1.88-15.27 1.66-40.89 1.15-59.69A63.39 63.39 0 0 0 122 320.34c-18 5.32-42.46 13-56.41 19.54-7.46 3.48-11.75 2.22-12.28 1.11-.4-.82.8-3.81 6.06-6.37zM445.69 349.21c5.07-10.65-2.73-21.3-13.06-26.31-7-3.42-16.62-8.5-26.77-13.87-10.74-5.69-21.86-11.58-30-15.52-16.69-8-41.33-10.92-42.37-11a7.5 7.5 0 0 0-1.71 14.9c.23 0 23.18 2.74 37.58 9.66 15.17 7.28 41.63 22 56.76 29.36 5.26 2.56 6.46 5.55 6.07 6.37-.53 1.11-4.82 2.38-12.28-1.11-13.94-6.51-38.37-14.22-56.41-19.54A63.63 63.63 0 0 0 281.06 382c-.51 18.8-.73 44.42 1.15 59.69 1 8.17-1.52 11.86-2.74 12-.93.13-3.38-1.95-4.18-7.75-2.55-18.2-7.59-43.91-10.39-63.15-2.31-15.53 2.3-34.09 2.35-34.27a7.5 7.5 0 0 0-14.54-3.69c-.22.87-5.41 21.61-2.65 40.16 2.78 19.21 7.83 44.93 10.37 63 2.25 14.8 11.35 21.55 21 20.56 9.11-1.2 17.9-10.69 15.68-28.73-1.77-14.34-1.55-39.15-1-57.44.44-16.23 8.24-31 21.24-39.86a49.7 49.7 0 0 1 41.92-6c17.55 5.18 41.21 12.63 54.3 18.74 16.43 7.67 28.17 2.24 32.12-6.05zM448.81 252.36c-14.19-2.75-37.71-10.63-54.95-16.75a49.73 49.73 0 0 1-30.37-29.53c-5.33-14.78-2.93-31.33 6.25-44.73 10.34-15.08 24.74-35.29 34.6-45.85 12.4-13.29 10.87-26.14 4.2-32.46-8.56-8.11-21.1-4-29.06 4.29-5.43 5.67-13.22 13.19-21.48 21.18-17.76 17.71-28.77 25.64-41 47.88-4.57 8.84 7.89 15.83 13.06 7.36 5.08-9 10.19-16.3 14.78-21.11 11.61-12.17 33.81-32.79 45.46-44.91 4.06-4.22 7.28-4.43 7.93-3.8.9.85.78 5.31-4.84 11.33-10.5 11.25-25.38 32.1-36 47.61a63.38 63.38 0 0 0 31.47 96.87c17.72 6.3 42 14.42 57.12 17.35 8.08 1.57 10.81 5.11 10.58 6.32-.16.89-2.89 2.61-8.65 1.58-18.1-3.19-44.11-6.35-63.28-9.63-15.66-2.63-35.72-14.1-35.92-14.22a7.5 7.5 0 1 0-7.49 13c.91.53 22.58 12.93 40.92 16 19.13 3.28 45.15 6.43 63.13 9.6 30.36 5.5 37.87-30.93 3.54-37.38z" fill="#213547" data-original="#000000" class="" opacity="1"></path><path d="M245.45 112c20.76.53 38.49-23.19 38-43.25-.79-47.77-75.3-47.76-76.08 0-.37 20.09 17.31 43.83 38.08 43.25zm0-64.21c13.35 0 23 8.82 23 21 0 12.72-10.63 28.25-23 28.25s-23-15.53-23-28.25c-.04-12.14 9.65-20.96 23-20.96zM144.76 416.74c23.13.32 38.3-22.13 36.86-44.26-2.32-40.64-48.88-43.07-70-15.09-18.54 24.77 3.14 59.31 33.14 59.35zm-21-50.53c7.48-10.29 25.21-16.6 35.25-9.31 11.16 8.74 8.66 27.29 2 36.39a19.68 19.68 0 0 1-14.01 8.33c-18.52 1.84-35.07-19.62-23.21-35.41zM340.72 418.54a39.85 39.85 0 0 0 23.43-7.93c29.37-21.76 16.66-60.17-15.94-68.6-39.37-10.36-56.07 33.17-36 61.87a34.82 34.82 0 0 0 28.51 14.66zM318.81 375c.63-14.81 11.23-22.51 25.51-18.54A32.26 32.26 0 0 1 361.66 368c16.3 22.59-20.84 49.57-37.29 27.08a32.16 32.16 0 0 1-5.56-20.08zM396.79 154.52c-19.21 5.77-36.31 30-29.38 49.54 4.45 15.29 23.23 25.22 39.46 24.88 26.9.39 44.28-23.76 35.87-49.35-5.96-19.52-26.41-31.77-45.95-25.07zm20.9 15.79c15.68 9.07 17.24 36.3-2 42.3-10.71 3.49-29.11.13-34-13.18-5.16-16.99 18.96-39.43 36-29.12zM68.52 224c19.26 6.64 46.9-3 52.88-22.82 6.93-19.58-10.16-43.78-29.37-49.54-45.68-13.99-68.7 56.87-23.51 72.36zm-8.18-42.66c7.91-22.75 31.86-20.2 43.33-2.5 8.19 12.34 4.15 24.82-9.74 30-19.6 7.63-40.63-4.53-33.59-27.48z" fill="#213547" data-original="#000000" class="" opacity="1"></path></g></svg>