<svg xmlns="http://www.w3.org/2000/svg" version="1.1" xmlns:xlink="http://www.w3.org/1999/xlink" xmlns:svgjs="http://svgjs.com/svgjs" width="512" height="512" x="0" y="0" viewBox="0 0 512 512" style="enable-background:new 0 0 512 512" xml:space="preserve" class=""><g><path d="M460.987 266.152v111.916c0 61.965-50.412 112.378-112.378 112.378h-60.693c-41.24 0-76.719-20.48-97.338-56.188l-69.021-119.57c-6.66-11.542-2.683-26.354 8.867-33.019 12.371-7.16 26.574-9.294 39.98-6.006 13.669 3.352 25.149 12.038 32.325 24.458l17.345 30.039V162.415c0-19.801 16.109-35.91 35.91-35.91s35.939 16.109 35.939 35.91v64.498a35.765 35.765 0 0 1 21.939-7.491c11.845 0 22.368 5.769 28.913 14.647 6.55-8.878 17.082-14.647 28.937-14.647 14.775 0 27.496 8.977 33 21.768 5.979-5.417 13.907-8.721 22.592-8.721 18.572 0 33.682 15.11 33.682 33.682zm-331.375-77.937c4.659-2.417 7.441-6.999 7.441-12.254V35.399c0-5.254-2.781-9.835-7.408-12.236-4.593-2.414-9.908-2.092-14.25.882L13.949 94.325C10.168 96.942 8 101.081 8 105.681s2.168 8.739 5.946 11.354l101.479 70.302c2.396 1.642 5.104 2.471 7.82 2.471 2.168 0 4.342-.528 6.366-1.592zm368.439-93.891L396.573 24.023c-4.313-2.952-9.627-3.274-14.188-.876-4.658 2.418-7.439 6.999-7.439 12.252v140.562c0 5.254 2.781 9.835 7.408 12.236 2.04 1.072 4.223 1.605 6.399 1.604 2.724 0 5.438-.833 7.852-2.486l101.447-70.28c3.779-2.617 5.947-6.756 5.947-11.356s-2.168-8.74-5.948-11.356zm-242.066 2.181c34.948 0 63.618 27.32 65.792 61.714 11.636-14.567 18.321-32.927 18.321-52.54 0-46.38-37.733-84.113-84.113-84.113s-84.113 37.733-84.113 84.113c0 19.618 6.695 37.985 18.35 52.556 2.165-34.402 30.826-61.731 65.764-61.731z" fill="#213547" data-original="#000000" class="" opacity="1"></path></g></svg>